# xmcd CD database file
# Copyright (C) 1996 Ti Kan
#
# Track frame offsets:
#  182
#  22447
#  47192
#  63365
#
# Disc length: 1073 seconds
#
# Revision: 1
# Processed by: cddbd v1.4b41PL1 Copyright (c) Steve Scherf et al.
# Submitted via: CDWizzard Release:4.15
#
DISCID=37042f04
DTITLE=Roxette - Queen Of Rain
DYEAR=1900
DGENRE=
TTITLE0=Queen Of Rain
TTITLE1=It Must Have Been Love (Live in Sydney)
TTITLE2=Paint (Live in Sydney)
TTITLE3=Dangerous
EXTD=
EXTT0=
EXTT1=
EXTT2=
EXTT3=
PLAYORDER=
